PathFileType	4	(X/Y/Z)	dyn.trc	
DataRate	CameraRate	NumFrames	NumMarkers	Units	OrigDataRate	OrigDataStartFrame	OrigNumFrames	
0.00	0.00	31	15	m	100.00	36	211	
Frame#	Time	RTT			RHF			RLM			RMM			RCA			RPT			RST			RVMB			RTN			RSMB			RFMB			RVMH			RSMH			RFMH			RPM			
		X1	Y1	Z1	X2	Y2	Z2	X3	Y3	Z3	X4	Y4	Z4	X5	Y5	Z5	X6	Y6	Z6	X7	Y7	Z7	X8	Y8	Z8	X9	Y9	Z9	X10	Y10	Z10	X11	Y11	Z11	X12	Y12	Z12	X13	Y13	Z13	X14	Y14	Z14	X15	Y15	Z15	

36	0.350	0.26164	0.44119	-0.13949	0.19938	0.45396	-0.08596	0.18298	0.05563	-0.14638	0.20852	0.07740	-0.22323	0.13158	0.02076	-0.19309	0.18210	0.03369	-0.14954	0.20501	0.04686	-0.21915	0.22852	0.02618	-0.13099	0.24359	0.04200	-0.21340	0.27195	0.06405	-0.15778	0.28732	0.04739	-0.19423	0.27728	0.02380	-0.10470	0.32497	0.03533	-0.14483	0.33334	0.03569	-0.18306	0.36885	0.02206	-0.17538 
37	0.360	0.26364	0.44079	-0.13928	0.20129	0.45399	-0.08589	0.18302	0.05566	-0.14639	0.20858	0.07741	-0.22328	0.13157	0.02084	-0.19310	0.18212	0.03369	-0.14956	0.20503	0.04684	-0.21913	0.22852	0.02614	-0.13098	0.24362	0.04194	-0.21338	0.27199	0.06401	-0.15778	0.28737	0.04732	-0.19425	0.27726	0.02375	-0.10466	0.32498	0.03528	-0.14478	0.33338	0.03565	-0.18302	0.36890	0.02204	-0.17526 
38	0.370	0.26554	0.44041	-0.13907	0.20312	0.45404	-0.08583	0.18306	0.05569	-0.14640	0.20865	0.07743	-0.22332	0.13157	0.02093	-0.19309	0.18215	0.03369	-0.14957	0.20505	0.04684	-0.21911	0.22852	0.02610	-0.13096	0.24364	0.04190	-0.21336	0.27202	0.06396	-0.15778	0.28741	0.04726	-0.19426	0.27724	0.02371	-0.10461	0.32500	0.03522	-0.14473	0.33342	0.03561	-0.18297	0.36894	0.02202	-0.17515 
39	0.380	0.26736	0.44005	-0.13888	0.20488	0.45410	-0.08576	0.18310	0.05572	-0.14639	0.20871	0.07745	-0.22335	0.13156	0.02102	-0.19308	0.18218	0.03369	-0.14958	0.20506	0.04685	-0.21908	0.22852	0.02607	-0.13095	0.24366	0.04187	-0.21334	0.27205	0.06391	-0.15778	0.28745	0.04721	-0.19427	0.27722	0.02368	-0.10455	0.32501	0.03517	-0.14467	0.33344	0.03557	-0.18293	0.36897	0.02199	-0.17505 
40	0.390	0.26909	0.43971	-0.13869	0.20659	0.45418	-0.08570	0.18315	0.05577	-0.14637	0.20877	0.07748	-0.22336	0.13155	0.02112	-0.19307	0.18221	0.03369	-0.14958	0.20508	0.04688	-0.21905	0.22853	0.02604	-0.13093	0.24368	0.04185	-0.21331	0.27209	0.06386	-0.15777	0.28748	0.04716	-0.19427	0.27720	0.02365	-0.10450	0.32503	0.03513	-0.14462	0.33347	0.03553	-0.18289	0.36900	0.02197	-0.17496 
41	0.400	0.27076	0.43939	-0.13853	0.20825	0.45426	-0.08564	0.18321	0.05583	-0.14635	0.20884	0.07750	-0.22337	0.13155	0.02122	-0.19305	0.18225	0.03371	-0.14957	0.20511	0.04694	-0.21903	0.22854	0.02603	-0.13091	0.24369	0.04185	-0.21329	0.27213	0.06381	-0.15777	0.28750	0.04713	-0.19427	0.27719	0.02364	-0.10444	0.32506	0.03509	-0.14457	0.33349	0.03550	-0.18285	0.36903	0.02194	-0.17489 
42	0.410	0.27236	0.43909	-0.13839	0.20988	0.45435	-0.08559	0.18327	0.05591	-0.14633	0.20891	0.07753	-0.22336	0.13155	0.02133	-0.19304	0.18230	0.03373	-0.14957	0.20514	0.04701	-0.21901	0.22856	0.02602	-0.13089	0.24370	0.04186	-0.21326	0.27217	0.06376	-0.15776	0.28753	0.04710	-0.19427	0.27718	0.02363	-0.10439	0.32509	0.03506	-0.14452	0.33352	0.03547	-0.18282	0.36906	0.02192	-0.17484 
43	0.420	0.27391	0.43880	-0.13829	0.21148	0.45445	-0.08554	0.18333	0.05599	-0.14631	0.20898	0.07755	-0.22334	0.13156	0.02145	-0.19302	0.18235	0.03375	-0.14956	0.20518	0.04709	-0.21900	0.22858	0.02603	-0.13088	0.24372	0.04187	-0.21324	0.27222	0.06371	-0.15776	0.28755	0.04707	-0.19426	0.27718	0.02363	-0.10435	0.32512	0.03504	-0.14448	0.33354	0.03544	-0.18279	0.36909	0.02190	-0.17480 
44	0.430	0.27541	0.43852	-0.13822	0.21306	0.45455	-0.08550	0.18340	0.05609	-0.14629	0.20906	0.07756	-0.22331	0.13156	0.02158	-0.19300	0.18242	0.03378	-0.14956	0.20523	0.04720	-0.21900	0.22862	0.02604	-0.13087	0.24374	0.04188	-0.21322	0.27227	0.06365	-0.15776	0.28757	0.04706	-0.19426	0.27719	0.02363	-0.10432	0.32517	0.03502	-0.14444	0.33357	0.03542	-0.18277	0.36913	0.02187	-0.17477 
45	0.440	0.27686	0.43827	-0.13819	0.21462	0.45466	-0.08547	0.18348	0.05620	-0.14627	0.20915	0.07757	-0.22327	0.13157	0.02172	-0.19299	0.18248	0.03382	-0.14956	0.20528	0.04731	-0.21901	0.22866	0.02607	-0.13087	0.24377	0.04190	-0.21321	0.27232	0.06360	-0.15776	0.28760	0.04704	-0.19427	0.27720	0.02364	-0.10429	0.32522	0.03501	-0.14440	0.33360	0.03540	-0.18275	0.36917	0.02186	-0.17475 
46	0.450	0.27828	0.43803	-0.13819	0.21616	0.45477	-0.08545	0.18355	0.05633	-0.14626	0.20924	0.07758	-0.22323	0.13158	0.02186	-0.19298	0.18256	0.03386	-0.14956	0.20534	0.04743	-0.21903	0.22871	0.02610	-0.13087	0.24380	0.04191	-0.21320	0.27238	0.06355	-0.15777	0.28763	0.04703	-0.19427	0.27723	0.02365	-0.10428	0.32527	0.03500	-0.14437	0.33364	0.03538	-0.18274	0.36921	0.02184	-0.17474 
47	0.460	0.27966	0.43780	-0.13822	0.21769	0.45488	-0.08544	0.18363	0.05646	-0.14625	0.20933	0.07758	-0.22318	0.13159	0.02201	-0.19297	0.18264	0.03391	-0.14957	0.20541	0.04756	-0.21907	0.22877	0.02614	-0.13089	0.24384	0.04193	-0.21320	0.27244	0.06350	-0.15779	0.28767	0.04702	-0.19429	0.27725	0.02366	-0.10427	0.32533	0.03500	-0.14435	0.33368	0.03536	-0.18273	0.36925	0.02182	-0.17472 
48	0.470	0.28102	0.43760	-0.13828	0.21919	0.45499	-0.08543	0.18371	0.05661	-0.14625	0.20943	0.07757	-0.22313	0.13160	0.02217	-0.19297	0.18273	0.03396	-0.14959	0.20548	0.04770	-0.21911	0.22883	0.02619	-0.13090	0.24389	0.04193	-0.21321	0.27250	0.06345	-0.15782	0.28771	0.04700	-0.19431	0.27729	0.02367	-0.10427	0.32539	0.03499	-0.14433	0.33373	0.03535	-0.18272	0.36930	0.02181	-0.17471 
49	0.480	0.28235	0.43741	-0.13835	0.22067	0.45511	-0.08542	0.18379	0.05675	-0.14626	0.20952	0.07757	-0.22308	0.13162	0.02234	-0.19297	0.18282	0.03401	-0.14962	0.20555	0.04782	-0.21916	0.22889	0.02625	-0.13093	0.24393	0.04193	-0.21322	0.27256	0.06341	-0.15785	0.28776	0.04699	-0.19433	0.27732	0.02369	-0.10428	0.32545	0.03499	-0.14432	0.33378	0.03533	-0.18272	0.36935	0.02180	-0.17470 
50	0.490	0.28367	0.43723	-0.13843	0.22213	0.45522	-0.08541	0.18387	0.05691	-0.14628	0.20961	0.07756	-0.22304	0.13164	0.02251	-0.19297	0.18292	0.03406	-0.14965	0.20562	0.04794	-0.21922	0.22896	0.02630	-0.13096	0.24398	0.04193	-0.21324	0.27262	0.06337	-0.15789	0.28780	0.04697	-0.19436	0.27736	0.02370	-0.10429	0.32552	0.03498	-0.14430	0.33383	0.03531	-0.18272	0.36940	0.02179	-0.17468 
51	0.500	0.28498	0.43706	-0.13851	0.22356	0.45533	-0.08540	0.18395	0.05706	-0.14630	0.20969	0.07755	-0.22300	0.13165	0.02269	-0.19298	0.18302	0.03412	-0.14969	0.20569	0.04805	-0.21929	0.22902	0.02636	-0.13099	0.24403	0.04191	-0.21327	0.27267	0.06334	-0.15794	0.28785	0.04694	-0.19440	0.27740	0.02371	-0.10431	0.32558	0.03498	-0.14429	0.33389	0.03530	-0.18272	0.36945	0.02178	-0.17466 
52	0.510	0.28629	0.43690	-0.13859	0.22498	0.45543	-0.08539	0.18403	0.05721	-0.14632	0.20976	0.07754	-0.22298	0.13167	0.02288	-0.19299	0.18313	0.03417	-0.14974	0.20575	0.04814	-0.21935	0.22909	0.02642	-0.13103	0.24408	0.04189	-0.21330	0.27272	0.06331	-0.15798	0.28790	0.04691	-0.19444	0.27743	0.02372	-0.10433	0.32563	0.03497	-0.14428	0.33395	0.03528	-0.18271	0.36950	0.02177	-0.17464 
53	0.520	0.28759	0.43674	-0.13865	0.22637	0.45553	-0.08537	0.18410	0.05736	-0.14636	0.20981	0.07754	-0.22297	0.13169	0.02308	-0.19300	0.18324	0.03423	-0.14980	0.20580	0.04822	-0.21942	0.22915	0.02648	-0.13107	0.24412	0.04186	-0.21333	0.27277	0.06329	-0.15803	0.28794	0.04688	-0.19449	0.27747	0.02373	-0.10435	0.32568	0.03496	-0.14428	0.33400	0.03526	-0.18271	0.36955	0.02176	-0.17461 
54	0.530	0.28889	0.43658	-0.13870	0.22775	0.45562	-0.08533	0.18418	0.05751	-0.14640	0.20984	0.07755	-0.22297	0.13172	0.02328	-0.19302	0.18335	0.03429	-0.14987	0.20585	0.04828	-0.21948	0.22921	0.02654	-0.13111	0.24416	0.04183	-0.21337	0.27282	0.06328	-0.15808	0.28798	0.04684	-0.19454	0.27750	0.02374	-0.10437	0.32573	0.03495	-0.14427	0.33406	0.03523	-0.18271	0.36959	0.02174	-0.17457 
55	0.540	0.29020	0.43642	-0.13872	0.22912	0.45569	-0.08530	0.18425	0.05765	-0.14644	0.20986	0.07756	-0.22298	0.13175	0.02350	-0.19304	0.18346	0.03436	-0.14994	0.20588	0.04833	-0.21954	0.22927	0.02660	-0.13115	0.24419	0.04179	-0.21341	0.27286	0.06328	-0.15813	0.28801	0.04679	-0.19459	0.27753	0.02375	-0.10439	0.32577	0.03493	-0.14426	0.33411	0.03521	-0.18271	0.36964	0.02172	-0.17454 
56	0.550	0.29153	0.43625	-0.13872	0.23048	0.45575	-0.08524	0.18433	0.05779	-0.14648	0.20985	0.07758	-0.22301	0.13178	0.02373	-0.19305	0.18357	0.03443	-0.15001	0.20590	0.04837	-0.21959	0.22932	0.02666	-0.13119	0.24421	0.04175	-0.21345	0.27290	0.06329	-0.15818	0.28804	0.04673	-0.19463	0.27756	0.02376	-0.10441	0.32581	0.03492	-0.14425	0.33416	0.03518	-0.18270	0.36968	0.02170	-0.17451 
57	0.560	0.29287	0.43607	-0.13869	0.23185	0.45580	-0.08518	0.18440	0.05793	-0.14653	0.20984	0.07762	-0.22306	0.13182	0.02397	-0.19307	0.18368	0.03452	-0.15008	0.20592	0.04840	-0.21963	0.22937	0.02671	-0.13123	0.24423	0.04171	-0.21350	0.27294	0.06331	-0.15822	0.28806	0.04667	-0.19468	0.27758	0.02376	-0.10443	0.32584	0.03490	-0.14424	0.33420	0.03515	-0.18270	0.36971	0.02167	-0.17447 
58	0.570	0.29423	0.43588	-0.13864	0.23323	0.45582	-0.08511	0.18448	0.05807	-0.14657	0.20982	0.07766	-0.22312	0.13186	0.02422	-0.19308	0.18378	0.03462	-0.15016	0.20592	0.04844	-0.21966	0.22942	0.02677	-0.13127	0.24424	0.04168	-0.21354	0.27298	0.06334	-0.15825	0.28808	0.04660	-0.19472	0.27760	0.02377	-0.10444	0.32587	0.03488	-0.14423	0.33424	0.03512	-0.18269	0.36974	0.02164	-0.17444 
59	0.580	0.29562	0.43566	-0.13857	0.23464	0.45583	-0.08503	0.18456	0.05821	-0.14662	0.20979	0.07773	-0.22318	0.13191	0.02449	-0.19310	0.18389	0.03474	-0.15023	0.20593	0.04848	-0.21968	0.22947	0.02683	-0.13132	0.24425	0.04166	-0.21357	0.27302	0.06337	-0.15829	0.28809	0.04654	-0.19475	0.27762	0.02378	-0.10446	0.32589	0.03486	-0.14422	0.33428	0.03508	-0.18268	0.36977	0.02160	-0.17441 
60	0.590	0.29704	0.43543	-0.13848	0.23607	0.45583	-0.08494	0.18464	0.05836	-0.14666	0.20978	0.07781	-0.22326	0.13196	0.02476	-0.19311	0.18399	0.03488	-0.15030	0.20593	0.04853	-0.21969	0.22952	0.02689	-0.13136	0.24426	0.04165	-0.21361	0.27307	0.06341	-0.15832	0.28809	0.04647	-0.19478	0.27764	0.02379	-0.10448	0.32591	0.03484	-0.14421	0.33431	0.03505	-0.18267	0.36979	0.02156	-0.17439 
61	0.600	0.29850	0.43518	-0.13837	0.23754	0.45581	-0.08484	0.18472	0.05852	-0.14670	0.20978	0.07791	-0.22334	0.13201	0.02506	-0.19312	0.18409	0.03503	-0.15035	0.20594	0.04861	-0.21969	0.22956	0.02696	-0.13140	0.24426	0.04166	-0.21364	0.27312	0.06345	-0.15835	0.28809	0.04642	-0.19480	0.27766	0.02380	-0.10449	0.32592	0.03482	-0.14419	0.33433	0.03502	-0.18265	0.36981	0.02152	-0.17436 
62	0.610	0.29999	0.43491	-0.13824	0.23907	0.45578	-0.08473	0.18481	0.05868	-0.14673	0.20980	0.07802	-0.22343	0.13206	0.02536	-0.19312	0.18419	0.03521	-0.15040	0.20596	0.04870	-0.21968	0.22961	0.02704	-0.13143	0.24427	0.04168	-0.21366	0.27317	0.06349	-0.15838	0.28810	0.04637	-0.19482	0.27768	0.02381	-0.10450	0.32594	0.03480	-0.14417	0.33435	0.03499	-0.18263	0.36982	0.02148	-0.17434 
63	0.620	0.30153	0.43463	-0.13810	0.24065	0.45575	-0.08461	0.18490	0.05886	-0.14676	0.20986	0.07816	-0.22352	0.13211	0.02568	-0.19313	0.18428	0.03540	-0.15044	0.20598	0.04882	-0.21966	0.22966	0.02713	-0.13147	0.24429	0.04173	-0.21368	0.27324	0.06353	-0.15842	0.28811	0.04634	-0.19482	0.27769	0.02382	-0.10451	0.32595	0.03479	-0.14415	0.33437	0.03497	-0.18261	0.36983	0.02144	-0.17432 
64	0.630	0.30312	0.43432	-0.13795	0.24229	0.45571	-0.08448	0.18499	0.05906	-0.14677	0.20995	0.07832	-0.22360	0.13216	0.02601	-0.19313	0.18437	0.03562	-0.15047	0.20603	0.04897	-0.21964	0.22971	0.02722	-0.13150	0.24431	0.04179	-0.21370	0.27332	0.06356	-0.15845	0.28813	0.04633	-0.19482	0.27771	0.02384	-0.10451	0.32596	0.03477	-0.14413	0.33439	0.03495	-0.18258	0.36983	0.02141	-0.17430 
65	0.640	0.30476	0.43400	-0.13780	0.24401	0.45567	-0.08434	0.18509	0.05927	-0.14679	0.21009	0.07850	-0.22368	0.13221	0.02636	-0.19313	0.18446	0.03585	-0.15048	0.20608	0.04914	-0.21962	0.22976	0.02733	-0.13153	0.24434	0.04188	-0.21371	0.27340	0.06360	-0.15849	0.28816	0.04634	-0.19482	0.27773	0.02386	-0.10452	0.32598	0.03477	-0.14411	0.33440	0.03494	-0.18255	0.36983	0.02138	-0.17428 
66	0.650	0.30646	0.43367	-0.13763	0.24580	0.45564	-0.08420	0.18519	0.05950	-0.14679	0.21026	0.07869	-0.22375	0.13225	0.02672	-0.19313	0.18455	0.03610	-0.15048	0.20616	0.04934	-0.21959	0.22982	0.02745	-0.13156	0.24438	0.04198	-0.21371	0.27350	0.06362	-0.15854	0.28821	0.04637	-0.19481	0.27775	0.02387	-0.10452	0.32600	0.03476	-0.14409	0.33441	0.03494	-0.18252	0.36984	0.02136	-0.17426 
